<svg xmlns="http://www.w3.org/2000/svg" viewBox="0 0 100 100" width="128" height="128" preserveAspectRatio="xMidYMid meet">
<title>النسرُ الذهبي</title>
<defs>
<linearGradient id="m-body-coupe-gold" x1="0" y1="0.1" x2="1" y2="0.9">
<stop offset="0" stop-color="#dbba6b"/>
<stop offset="0.45" stop-color="#c9971f"/>
<stop offset="1" stop-color="#8d6a16"/>
</linearGradient>
<linearGradient id="m-glass-coupe-gold" x1="0" y1="0" x2="1" y2="1">
<stop offset="0" stop-color="#39424e"/>
<stop offset="1" stop-color="#0d1116"/>
</linearGradient>
</defs>
<path d="M 43.5 8 Q 50 4 56.5 8 L 69.5 26 L 69.5 74 L 60.5 92 Q 50 96 39.5 92 L 30.5 74 L 30.5 26 Z" fill="#000000" opacity="0.22" transform="translate(2.5,3)"/>
<!-- **هالةٌ ثم حرفٌ داكن** — لا حرفٌ واحد: علامةٌ داكنةُ الهيكل بحرفٍ داكن
     **تختفي على خريطةٍ داكنة**، وفاتحةٌ بحرفٍ فاتحٍ تختفي على فاتحة. والهالةُ
     الفاتحةُ تحت الحرفِ الداكن تُقرأ على السمتين معاً — وهي ما تفعله تسمياتُ
     الخرائط نفسُها. **ولا تتبع سمةَ التطبيق**: الخريطةُ ليست CSS. -->
<path d="M 43.5 8 Q 50 4 56.5 8 L 69.5 26 L 69.5 74 L 60.5 92 Q 50 96 39.5 92 L 30.5 74 L 30.5 26 Z" fill="none" stroke="#f2f0eb" stroke-width="7" stroke-linejoin="round" opacity="0.62"/>
<path d="M 43.5 8 Q 50 4 56.5 8 L 69.5 26 L 69.5 74 L 60.5 92 Q 50 96 39.5 92 L 30.5 74 L 30.5 26 Z" fill="url(#m-body-coupe-gold)" stroke="#0b0e11" stroke-width="2.6" stroke-linejoin="round"/>

<path d="M 36.5 32 L 63.5 32 L 60.5 43 L 39.5 43 Z" fill="url(#m-glass-coupe-gold)"/>
<rect x="36.5" y="45" width="27" height="12" rx="3" fill="#cea135"/>
<path d="M 39.5 58 L 60.5 58 L 63.5 66 L 36.5 66 Z" fill="url(#m-glass-coupe-gold)"/>
<rect x="26" y="33" width="5" height="8" rx="2.5" fill="#795b13"/>
<rect x="69" y="33" width="5" height="8" rx="2.5" fill="#795b13"/>
<rect x="34.5" y="9" width="8" height="4.5" rx="2" fill="#f4f7fb" opacity="0.95"/>
<rect x="57.5" y="9" width="8" height="4.5" rx="2" fill="#f4f7fb" opacity="0.95"/>
<rect x="34.5" y="87" width="8" height="4" rx="2" fill="#e5534b" opacity="0.95"/>
<rect x="57.5" y="87" width="8" height="4" rx="2" fill="#e5534b" opacity="0.95"/>
</svg>
